<?xml version="1.0" encoding="UTF-8"?>
<svg id="Livello_2" data-name="Livello 2" xmlns="http://www.w3.org/2000/svg" viewBox="0 0 2295.31 308.09">
  <defs>
    <style>
      .cls-1 {
        fill: #fff;
      }
    </style>
  </defs>
  <g id="Livello_1-2" data-name="Livello 1">
    <polygon class="cls-1" points="1168.46 231.07 1133.8 308.09 733.27 308.09 767.92 231.07 871.92 0 995.14 0 891.14 231.07 1168.46 231.07"/>
    <polygon class="cls-1" points="724.05 0 600.81 0 0 308.09 169.45 308.09 566.94 106.24 498.66 231.06 439.47 231.07 288.88 308.09 585.35 308.09 585.35 308.09 585.41 308.09 724.05 0"/>
    <g>
      <polygon class="cls-1" points="1664.75 231.07 1264.23 231.07 1229.56 308.09 1630.08 308.09 1664.75 231.07"/>
      <polygon class="cls-1" points="1716.03 115.54 1315.51 115.54 1280.84 192.56 1681.36 192.56 1716.03 115.54"/>
      <polygon class="cls-1" points="1767.66 0 1367.14 0 1332.47 77.02 1732.99 77.02 1767.66 0"/>
    </g>
    <polygon class="cls-1" points="1842.83 115.52 1808.14 192.57 1807.86 192.57 1842.51 115.52 1842.83 115.52"/>
    <polygon class="cls-1" points="1983.38 77.02 1966.02 115.52 2171.84 115.52 2137.16 192.57 1931.36 192.57 1879.34 308.09 1756.15 308.09 1808.14 192.57 1842.83 115.52 1860.15 77.02 1894.81 0 2295.31 0 2260.63 77.02 1983.38 77.02"/>
    <polygon class="cls-1" points="1894.81 0 1860.15 77.02 1860.12 77.02 1894.78 0 1894.81 0"/>
  </g>
</svg>